<svg width="24" height="24" viewBox="0 0 24 24" fill="none" xmlns="http://www.w3.org/2000/svg">
<path d="M14.7692 21.3969L12.3784 19.0062L11.0769 20.3077L14.7692 24L22.1538 16.6154L20.8523 15.3138L14.7692 21.3969Z" fill="#00A571"/>
<path d="M5.53841 22.1538V5.53846H16.6153V13.8462H18.4615V1.84615C18.461 1.35667 18.2663 0.887381 17.9202 0.541266C17.5741 0.195151 17.1048 0.000488748 16.6153 0H5.53841C5.04893 0.000488748 4.57964 0.195151 4.23353 0.541266C3.88741 0.887381 3.69275 1.35667 3.69226 1.84615V22.1538C3.69275 22.6433 3.88741 23.1126 4.23353 23.4587C4.57964 23.8048 5.04893 23.9995 5.53841 24H9.23072V22.1538H5.53841ZM5.53841 1.84615H16.6153V3.69231H5.53841V1.84615Z" fill="#00A571"/>
</svg>
