<svg width="24" height="20" viewBox="0 0 24 20" fill="none" xmlns="http://www.w3.org/2000/svg">
<path fill-rule="evenodd" clip-rule="evenodd" d="M11.9325 0.486084C9.16399 0.486084 6.94023 2.76687 6.94023 5.60636C6.94023 8.44669 9.16381 10.7277 11.9325 10.7277C14.7012 10.7277 16.9248 8.44669 16.9248 5.60636C16.9248 2.76687 14.701 0.486084 11.9325 0.486084ZM11.9325 2.15275C13.8036 2.15275 15.2998 3.68734 15.2998 5.60636C15.2998 7.52628 13.8037 9.06099 11.9325 9.06099C10.0613 9.06099 8.56523 7.52628 8.56523 5.60636C8.56523 3.68734 10.0615 2.15275 11.9325 2.15275ZM5.81409 1.53261C6.26282 1.53261 6.62659 1.90571 6.62659 2.36595C6.62659 2.82618 6.26282 3.19928 5.81409 3.19928C4.52669 3.19928 3.48258 4.2697 3.48258 5.58956C3.48258 6.90941 4.52669 7.97983 5.81409 7.97983C6.26282 7.97983 6.62659 8.35293 6.62659 8.81317C6.62659 9.27341 6.26282 9.6465 5.81409 9.6465C3.62939 9.6465 1.85758 7.83005 1.85758 5.58956C1.85758 3.34906 3.62939 1.53261 5.81409 1.53261ZM22.0176 5.58956C22.0176 3.34906 20.2457 1.53261 18.061 1.53261C17.6123 1.53261 17.2485 1.90571 17.2485 2.36595C17.2485 2.82618 17.6123 3.19928 18.061 3.19928C19.3484 3.19928 20.3926 4.2697 20.3926 5.58956C20.3926 6.90941 19.3484 7.97983 18.061 7.97983C17.6123 7.97983 17.2485 8.35293 17.2485 8.81317C17.2485 9.27341 17.6123 9.6465 18.061 9.6465C20.2457 9.6465 22.0176 7.83005 22.0176 5.58956ZM21.2038 11.7277C20.6835 11.6073 20.1276 11.525 19.5623 11.485C19.1147 11.4533 18.7267 11.7999 18.6959 12.259C18.665 12.7182 19.0029 13.1161 19.4505 13.1477C19.9343 13.1819 20.4083 13.2521 20.8693 13.3585C21.5861 13.5028 22.0534 13.7419 22.1694 13.9912C22.2567 14.1794 22.2567 14.4006 22.1686 14.5911C22.0541 14.8379 21.5907 15.0758 20.884 15.2248C20.4445 15.3175 20.1614 15.7581 20.2518 16.2089C20.3422 16.6597 20.7718 16.95 21.2113 16.8573C22.3794 16.611 23.235 16.1717 23.6364 15.3062C23.934 14.6626 23.934 13.9163 23.6365 13.2744C23.2322 12.4056 22.3618 11.9603 21.2038 11.7277ZM5.17927 12.259C5.1484 11.7999 4.76046 11.4533 4.3128 11.485C3.74753 11.525 3.19159 11.6073 2.64908 11.7325L2.42544 11.7811C1.39885 12.0216 0.615647 12.4637 0.239717 13.2743C-0.0591248 13.9156 -0.0591249 14.6633 0.240032 15.3068C0.639701 16.1715 1.49529 16.6109 2.66382 16.8573C3.10336 16.95 3.53294 16.6597 3.62332 16.2089C3.71371 15.7581 3.43066 15.3175 2.99113 15.2248C2.2847 15.0758 1.82171 14.8381 1.70761 14.5912C1.61871 14.4 1.61871 14.1801 1.70652 13.9916C1.82242 13.7417 2.28929 13.5027 2.98358 13.3633L3.34458 13.2875C3.70444 13.2193 4.0618 13.1734 4.4246 13.1477C4.87227 13.1161 5.21015 12.7182 5.17927 12.259ZM4.59761 15.7606C4.59761 13.1095 7.27122 12.1773 11.9325 12.1773L12.2628 12.1788C16.7292 12.2219 19.2674 13.1563 19.2674 15.7412C19.2674 18.2653 16.8412 19.2318 12.5846 19.3181L11.9325 19.3246C7.26053 19.3246 4.59761 18.4087 4.59761 15.7606ZM17.6424 15.7412C17.6424 14.5073 15.7135 13.8439 11.9325 13.8439C8.15524 13.8439 6.22261 14.5178 6.22261 15.7606C6.22261 16.9947 8.15093 17.6579 11.9325 17.6579C15.7086 17.6579 17.6424 16.9834 17.6424 15.7412Z" fill="#00A571"/>
</svg>
