<svg xmlns='http://www.w3.org/2000/svg' xmlns:xlink='http://www.w3.org/1999/xlink'>
	<symbol id="circle" viewBox="0 0 51 36" fill="none">
		<circle cx="33" cy="18" r="17.3" stroke-width="1.4"/>
	</symbol>
	<symbol id="arrow" viewBox="0 0 51 36">
		<path d="M1 17C0.447715 17 0 17.4477 0 18C0 18.5523 0.447715 19 1 19V17ZM37.7071 18.7071C38.0976 18.3166 38.0976 17.6834 37.7071 17.2929L31.3431 10.9289C30.9526 10.5384 30.3195 10.5384 29.9289 10.9289C29.5384 11.3195 29.5384 11.9526 29.9289 12.3431L35.5858 18L29.9289 23.6569C29.5384 24.0474 29.5384 24.6805 29.9289 25.0711C30.3195 25.4616 30.9526 25.4616 31.3431 25.0711L37.7071 18.7071ZM1 19H37V17H1V19Z"/>
	</symbol>
</svg>
