<svg style="display: none;" aria-hidden="true" xmlns="http://www.w3.org/2000/svg" xmlns:xlink="http://www.w3.org/1999/xlink"><symbol viewBox="0 0 12 9" id="svg-check-arrow" xmlns="http://www.w3.org/2000/svg">
<path d="M4.41776 8.8307C4.11909 8.8307 3.82043 8.71737 3.59243 8.48937L0.428426 5.32537C-0.0275742 4.86937 -0.0275742 4.1307 0.428426 3.67603C0.884426 3.22003 1.62176 3.2187 2.07776 3.6747L4.41776 6.0147L9.92176 0.510701C10.3778 0.0547012 11.1151 0.0547012 11.5711 0.510701C12.0271 0.966701 12.0271 1.70537 11.5711 2.16137L5.24309 8.48937C5.01509 8.71737 4.71643 8.8307 4.41776 8.8307Z"/>
</symbol><symbol viewBox="0 0 24 24" id="svg-fulfil" xmlns="http://www.w3.org/2000/svg">
<path d="M14.7692 21.3969L12.3784 19.0062L11.0769 20.3077L14.7692 24L22.1538 16.6154L20.8523 15.3138L14.7692 21.3969Z" />
<path d="M5.53841 22.1538V5.53846H16.6153V13.8462H18.4615V1.84615C18.461 1.35667 18.2663 0.887381 17.9202 0.541266C17.5741 0.195151 17.1048 0.000488748 16.6153 0H5.53841C5.04893 0.000488748 4.57964 0.195151 4.23353 0.541266C3.88741 0.887381 3.69275 1.35667 3.69226 1.84615V22.1538C3.69275 22.6433 3.88741 23.1126 4.23353 23.4587C4.57964 23.8048 5.04893 23.9995 5.53841 24H9.23072V22.1538H5.53841ZM5.53841 1.84615H16.6153V3.69231H5.53841V1.84615Z" />
</symbol><symbol viewBox="0 0 24 20" id="svg-message" xmlns="http://www.w3.org/2000/svg">
<path fill-rule="evenodd" clip-rule="evenodd" d="M17.9268 0C19.536 0 21.084 0.588889 22.2228 1.64556C23.3628 2.7 24 4.12222 24 5.61111V14.3889C24 17.4889 21.276 20 17.9268 20H6.072C2.7228 20 0 17.4889 0 14.3889V5.61111C0 2.51111 2.7108 0 6.072 0H17.9268ZM19.836 7.26676L19.932 7.17787C20.2188 6.85565 20.2188 6.38898 19.9188 6.06676C19.752 5.90121 19.5228 5.80009 19.284 5.77787C19.032 5.76565 18.792 5.84454 18.6108 6.00009L13.2 10.0001C12.504 10.5345 11.5068 10.5345 10.8 10.0001L5.39999 6.00009C5.02679 5.74454 4.51079 5.77787 4.19999 6.07787C3.87599 6.37787 3.83999 6.85565 4.11479 7.18898L4.27199 7.33343L9.73199 11.2779C10.404 11.7668 11.2188 12.0334 12.072 12.0334C12.9228 12.0334 13.752 11.7668 14.4228 11.2779L19.836 7.26676Z"/>
</symbol><symbol viewBox="0 0 10 20" fill="none" id="svg-nav-arrow" xmlns="http://www.w3.org/2000/svg">
<path d="M1 19L9 10L1 1" stroke="#2DFDBC" stroke-width="2" stroke-linecap="round" stroke-linejoin="round"/>
</symbol><symbol viewBox="0 0 24 24" id="svg-telegram" xmlns="http://www.w3.org/2000/svg">
<path fill-rule="evenodd" clip-rule="evenodd" d="M24 12C24 18.6274 18.6274 24 12 24C5.37258 24 0 18.6274 0 12C0 5.37258 5.37258 0 12 0C18.6274 0 24 5.37258 24 12ZM12.43 8.85893C11.2628 9.3444 8.93014 10.3492 5.43189 11.8733C4.86383 12.0992 4.56626 12.3202 4.53917 12.5363C4.49339 12.9015 4.95071 13.0453 5.57348 13.2411C5.65819 13.2678 5.74596 13.2954 5.83594 13.3246C6.44864 13.5238 7.27283 13.7568 7.70129 13.766C8.08994 13.7744 8.52373 13.6142 9.00264 13.2853C12.2712 11.079 13.9584 9.96381 14.0643 9.93977C14.139 9.92281 14.2426 9.90148 14.3128 9.96385C14.3829 10.0262 14.376 10.1443 14.3686 10.176C14.3233 10.3691 12.5281 12.0381 11.5991 12.9018C11.3095 13.171 11.1041 13.362 11.0621 13.4056C10.968 13.5033 10.8721 13.5958 10.78 13.6846C10.2108 14.2333 9.78391 14.6448 10.8036 15.3168C11.2936 15.6397 11.6857 15.9067 12.0769 16.1731C12.5042 16.4641 12.9303 16.7543 13.4816 17.1157C13.6221 17.2077 13.7562 17.3034 13.8869 17.3965C14.3841 17.751 14.8307 18.0694 15.3826 18.0186C15.7032 17.9891 16.0345 17.6876 16.2027 16.7884C16.6002 14.6631 17.3816 10.0585 17.5622 8.16097C17.578 7.99473 17.5581 7.78197 17.5422 7.68857C17.5262 7.59518 17.4928 7.46211 17.3714 7.3636C17.2276 7.24694 17.0056 7.22234 16.9064 7.22408C16.455 7.23203 15.7626 7.47282 12.43 8.85893Z"/>
</symbol><symbol viewBox="0 0 24 20" id="svg-users" xmlns="http://www.w3.org/2000/svg">
<path fill-rule="evenodd" clip-rule="evenodd" d="M11.9325 0.486084C9.16399 0.486084 6.94023 2.76687 6.94023 5.60636C6.94023 8.44669 9.16381 10.7277 11.9325 10.7277C14.7012 10.7277 16.9248 8.44669 16.9248 5.60636C16.9248 2.76687 14.701 0.486084 11.9325 0.486084ZM11.9325 2.15275C13.8036 2.15275 15.2998 3.68734 15.2998 5.60636C15.2998 7.52628 13.8037 9.06099 11.9325 9.06099C10.0613 9.06099 8.56523 7.52628 8.56523 5.60636C8.56523 3.68734 10.0615 2.15275 11.9325 2.15275ZM5.81409 1.53261C6.26282 1.53261 6.62659 1.90571 6.62659 2.36595C6.62659 2.82618 6.26282 3.19928 5.81409 3.19928C4.52669 3.19928 3.48258 4.2697 3.48258 5.58956C3.48258 6.90941 4.52669 7.97983 5.81409 7.97983C6.26282 7.97983 6.62659 8.35293 6.62659 8.81317C6.62659 9.27341 6.26282 9.6465 5.81409 9.6465C3.62939 9.6465 1.85758 7.83005 1.85758 5.58956C1.85758 3.34906 3.62939 1.53261 5.81409 1.53261ZM22.0176 5.58956C22.0176 3.34906 20.2457 1.53261 18.061 1.53261C17.6123 1.53261 17.2485 1.90571 17.2485 2.36595C17.2485 2.82618 17.6123 3.19928 18.061 3.19928C19.3484 3.19928 20.3926 4.2697 20.3926 5.58956C20.3926 6.90941 19.3484 7.97983 18.061 7.97983C17.6123 7.97983 17.2485 8.35293 17.2485 8.81317C17.2485 9.27341 17.6123 9.6465 18.061 9.6465C20.2457 9.6465 22.0176 7.83005 22.0176 5.58956ZM21.2038 11.7277C20.6835 11.6073 20.1276 11.525 19.5623 11.485C19.1147 11.4533 18.7267 11.7999 18.6959 12.259C18.665 12.7182 19.0029 13.1161 19.4505 13.1477C19.9343 13.1819 20.4083 13.2521 20.8693 13.3585C21.5861 13.5028 22.0534 13.7419 22.1694 13.9912C22.2567 14.1794 22.2567 14.4006 22.1686 14.5911C22.0541 14.8379 21.5907 15.0758 20.884 15.2248C20.4445 15.3175 20.1614 15.7581 20.2518 16.2089C20.3422 16.6597 20.7718 16.95 21.2113 16.8573C22.3794 16.611 23.235 16.1717 23.6364 15.3062C23.934 14.6626 23.934 13.9163 23.6365 13.2744C23.2322 12.4056 22.3618 11.9603 21.2038 11.7277ZM5.17927 12.259C5.1484 11.7999 4.76046 11.4533 4.3128 11.485C3.74753 11.525 3.19159 11.6073 2.64908 11.7325L2.42544 11.7811C1.39885 12.0216 0.615647 12.4637 0.239717 13.2743C-0.0591248 13.9156 -0.0591249 14.6633 0.240032 15.3068C0.639701 16.1715 1.49529 16.6109 2.66382 16.8573C3.10336 16.95 3.53294 16.6597 3.62332 16.2089C3.71371 15.7581 3.43066 15.3175 2.99113 15.2248C2.2847 15.0758 1.82171 14.8381 1.70761 14.5912C1.61871 14.4 1.61871 14.1801 1.70652 13.9916C1.82242 13.7417 2.28929 13.5027 2.98358 13.3633L3.34458 13.2875C3.70444 13.2193 4.0618 13.1734 4.4246 13.1477C4.87227 13.1161 5.21015 12.7182 5.17927 12.259ZM4.59761 15.7606C4.59761 13.1095 7.27122 12.1773 11.9325 12.1773L12.2628 12.1788C16.7292 12.2219 19.2674 13.1563 19.2674 15.7412C19.2674 18.2653 16.8412 19.2318 12.5846 19.3181L11.9325 19.3246C7.26053 19.3246 4.59761 18.4087 4.59761 15.7606ZM17.6424 15.7412C17.6424 14.5073 15.7135 13.8439 11.9325 13.8439C8.15524 13.8439 6.22261 14.5178 6.22261 15.7606C6.22261 16.9947 8.15093 17.6579 11.9325 17.6579C15.7086 17.6579 17.6424 16.9834 17.6424 15.7412Z" />
</symbol><symbol viewBox="0 0 24 24" id="svg-web" xmlns="http://www.w3.org/2000/svg">
<path d="M17.232 14.4C17.328 13.608 17.4 12.816 17.4 12C17.4 11.184 17.328 10.392 17.232 9.6H21.288C21.48 10.368 21.6 11.172 21.6 12C21.6 12.828 21.48 13.632 21.288 14.4M15.108 21.072C15.828 19.74 16.38 18.3 16.764 16.8H20.304C19.1414 18.8019 17.2969 20.3184 15.108 21.072ZM14.808 14.4H9.192C9.072 13.608 9 12.816 9 12C9 11.184 9.072 10.38 9.192 9.6H14.808C14.916 10.38 15 11.184 15 12C15 12.816 14.916 13.608 14.808 14.4ZM12 21.552C11.004 20.112 10.2 18.516 9.708 16.8H14.292C13.8 18.516 12.996 20.112 12 21.552ZM7.2 7.2H3.696C4.84663 5.19266 6.68975 3.67378 8.88 2.928C8.16 4.26 7.62 5.7 7.2 7.2ZM3.696 16.8H7.2C7.62 18.3 8.16 19.74 8.88 21.072C6.69435 20.318 4.85382 18.8013 3.696 16.8ZM2.712 14.4C2.52 13.632 2.4 12.828 2.4 12C2.4 11.172 2.52 10.368 2.712 9.6H6.768C6.672 10.392 6.6 11.184 6.6 12C6.6 12.816 6.672 13.608 6.768 14.4M12 2.436C12.996 3.876 13.8 5.484 14.292 7.2H9.708C10.2 5.484 11.004 3.876 12 2.436ZM20.304 7.2H16.764C16.3884 5.71375 15.8323 4.27908 15.108 2.928C17.316 3.684 19.152 5.208 20.304 7.2ZM12 0C5.364 0 0 5.4 0 12C0 15.1826 1.26428 18.2348 3.51472 20.4853C4.62902 21.5996 5.95189 22.4835 7.4078 23.0866C8.86371 23.6896 10.4241 24 12 24C15.1826 24 18.2348 22.7357 20.4853 20.4853C22.7357 18.2348 24 15.1826 24 12C24 10.4241 23.6896 8.86371 23.0866 7.4078C22.4835 5.95189 21.5996 4.62902 20.4853 3.51472C19.371 2.40042 18.0481 1.5165 16.5922 0.913446C15.1363 0.310389 13.5759 0 12 0Z" />
</symbol><symbol viewBox="0 0 24 24" id="svg-whatsapp" xmlns="http://www.w3.org/2000/svg">
<g clip-path="url(#hclip0_399_63)">
<path d="M0.00481605 24L1.62722 18.0384C0.558181 16.2058 -0.00346876 14.1216 1.61187e-05 12C1.61187e-05 5.3724 5.37241 0 12 0C18.6276 0 24 5.3724 24 12C24 18.6276 18.6276 24 12 24C9.87934 24.0034 7.796 23.4422 5.96401 22.374L0.00481605 24ZM7.66921 6.3696C7.51425 6.37922 7.36282 6.42003 7.22401 6.4896C7.09384 6.56331 6.97501 6.65547 6.87121 6.7632C6.72721 6.8988 6.64561 7.0164 6.55801 7.1304C6.11451 7.70759 5.87594 8.4161 5.88001 9.14399C5.88241 9.73199 6.03601 10.3044 6.27601 10.8396C6.76681 11.922 7.57441 13.068 8.64121 14.13C8.89801 14.3856 9.14881 14.6424 9.41881 14.8812C10.7429 16.0469 12.3207 16.8876 14.0268 17.3364L14.7096 17.4408C14.9316 17.4528 15.1536 17.436 15.3768 17.4252C15.7263 17.4071 16.0675 17.3125 16.3764 17.148C16.5336 17.067 16.6869 16.979 16.836 16.884C16.836 16.884 16.8876 16.8504 16.986 16.776C17.148 16.656 17.2476 16.5708 17.382 16.4304C17.4816 16.3272 17.568 16.206 17.634 16.068C17.7276 15.8724 17.8212 15.4992 17.8596 15.1884C17.8884 14.9508 17.88 14.8212 17.8764 14.7408C17.8716 14.6124 17.7648 14.4792 17.6484 14.4228L16.95 14.1096C16.95 14.1096 15.906 13.6548 15.2688 13.3644C15.2016 13.3351 15.1296 13.3184 15.0564 13.3152C14.9743 13.3068 14.8913 13.316 14.8131 13.3423C14.7349 13.3686 14.6632 13.4113 14.6028 13.4676V13.4652C14.5968 13.4652 14.5164 13.5336 13.6488 14.5848C13.599 14.6517 13.5304 14.7023 13.4518 14.7301C13.3731 14.7578 13.288 14.7616 13.2072 14.7408C13.129 14.7199 13.0524 14.6934 12.978 14.6616C12.8292 14.5992 12.7776 14.5752 12.6756 14.5308L12.6696 14.5284C11.9831 14.2287 11.3475 13.8238 10.7856 13.3284C10.6344 13.1964 10.494 13.0524 10.35 12.9132C9.8779 12.4611 9.46647 11.9496 9.12601 11.3916L9.05521 11.2776C9.00436 11.201 8.96324 11.1184 8.93281 11.0316C8.88721 10.8552 9.00601 10.7136 9.00601 10.7136C9.00601 10.7136 9.29761 10.3944 9.43321 10.2216C9.54612 10.078 9.65146 9.92858 9.74881 9.77399C9.89041 9.54599 9.93481 9.31199 9.86041 9.13079C9.52441 8.30999 9.17641 7.49279 8.81881 6.6816C8.74801 6.5208 8.53801 6.4056 8.34721 6.3828C8.28241 6.3756 8.21761 6.3684 8.15281 6.3636C7.99166 6.35559 7.83017 6.35719 7.66921 6.3684V6.3696Z"/>
</g>
<defs>
<clipPath id="hclip0_399_63">
<rect width="24" height="24" fill="white"/>
</clipPath>
</defs>
</symbol></svg>